<svg width="292" height="281" viewBox="0 0 292 281" fill="none" xmlns="http://www.w3.org/2000/svg">
<path fill-rule="evenodd" clip-rule="evenodd" d="M334.365 -73.1351C348.856 -38.1425 337.704 2.13355 330.609 41.1483C323.122 82.3157 324.635 128.226 291.867 160.54C259.115 192.839 206.271 192.57 161.697 207.724C114.666 223.713 70.6114 254.061 22.6899 252.052C-29.1992 249.877 -84.7675 234.41 -110.275 196.325C-135.505 158.655 -109.878 106.617 -105.857 60.1243C-102.478 21.0549 -99.8038 -16.079 -88.5553 -54.8126C-73.9416 -105.134 -80.5407 -171.038 -30.2984 -200.057C20.0992 -229.166 78.133 -191.844 132.485 -182.483C174.041 -175.326 215.607 -170.694 250.767 -151.649C286.265 -132.422 319.765 -108.39 334.365 -73.1351Z" fill="#C18EFD"/>
</svg>
