<svg width="18" height="15" viewBox="0 0 18 15" fill="none" xmlns="http://www.w3.org/2000/svg">
<path d="M2.78627 8.92885V10.6431C2.79313 11.8483 3.36227 11.661 3.78399 11.2993L6.21484 9.10457V10.2146C6.21484 11.256 6.45484 11.5003 7.50056 11.5003H11.3577C11.3577 11.5003 13.5901 14.1253 13.6077 14.1077C13.9291 14.5003 14.7996 14.3666 14.7863 13.6431V11.5003H16.072C17.122 11.5003 17.3577 11.2393 17.3577 10.2146V3.78599C17.3577 2.75742 17.1048 2.50028 16.072 2.50028H11.7863V1.64314C11.7863 0.584565 11.5891 0.357422 10.5006 0.357422H1.50056C0.489129 0.357422 0.214844 0.575993 0.214844 1.64314V7.21457C0.214844 8.25985 0.450558 8.92885 1.50056 8.92885H2.78627ZM13.5006 10.2146V12.2379L11.7863 10.2146H7.92913C7.6077 10.2146 7.50056 10.0989 7.50056 9.78599V4.21457C7.50056 3.92742 7.63341 3.78599 7.92913 3.78599H15.6434C15.9387 3.78599 16.072 3.94456 16.072 4.18885V9.78599C16.072 10.095 15.9181 10.2146 15.6434 10.2146H13.5006Z" fill="#C4C4C4"/>
</svg>
